<svg width="512" height="512" viewBox="0 0 512 512" fill="none" xmlns="http://www.w3.org/2000/svg">
<circle cx="256" cy="256" r="256" fill="#34495E"/>
<path d="M173.242 315C171.981 315 171.006 314.656 170.318 313.968C169.63 313.165 169.286 312.191 169.286 311.044V198.728C169.286 197.467 169.63 196.492 170.318 195.804C171.006 195.001 171.981 194.6 173.242 194.6H216.93C225.416 194.6 232.754 195.976 238.946 198.728C245.253 201.48 250.126 205.608 253.566 211.112C257.006 216.501 258.726 223.267 258.726 231.408C258.726 239.549 257.006 246.315 253.566 251.704C250.126 257.093 245.253 261.164 238.946 263.916C232.754 266.668 225.416 268.044 216.93 268.044H186.486V311.044C186.486 312.191 186.085 313.165 185.282 313.968C184.594 314.656 183.62 315 182.358 315H173.242ZM186.314 253.596H216.07C224.556 253.596 230.92 251.704 235.162 247.92C239.405 244.136 241.526 238.632 241.526 231.408C241.526 224.299 239.462 218.795 235.334 214.896C231.206 210.997 224.785 209.048 216.07 209.048H186.314V253.596Z" fill="#FFA500"/>
<path d="M195.125 312C194.805 312 194.533 311.904 194.309 311.712C194.117 311.488 194.021 311.216 194.021 310.896V288.192C194.021 287.872 194.117 287.6 194.309 287.376C194.533 287.152 194.805 287.04 195.125 287.04H197.333C197.653 287.04 197.925 287.152 198.149 287.376C198.373 287.6 198.485 287.872 198.485 288.192V290.304C199.125 289.216 200.005 288.4 201.125 287.856C202.245 287.312 203.605 287.04 205.205 287.04H207.077C207.397 287.04 207.653 287.152 207.845 287.376C208.069 287.568 208.181 287.824 208.181 288.144V290.112C208.181 290.432 208.069 290.688 207.845 290.88C207.653 291.072 207.397 291.168 207.077 291.168H204.197C202.469 291.168 201.109 291.68 200.117 292.704C199.125 293.696 198.629 295.056 198.629 296.784V310.896C198.629 311.216 198.517 311.488 198.293 311.712C198.069 311.904 197.797 312 197.477 312H195.125ZM222.01 312.48C219.578 312.48 217.546 312.016 215.914 311.088C214.282 310.16 213.034 308.88 212.17 307.248C211.306 305.584 210.826 303.696 210.73 301.584C210.698 301.04 210.682 300.352 210.682 299.52C210.682 298.656 210.698 297.968 210.73 297.456C210.826 295.312 211.306 293.424 212.17 291.792C213.066 290.16 214.33 288.88 215.962 287.952C217.594 287.024 219.61 286.56 222.01 286.56C224.41 286.56 226.426 287.024 228.058 287.952C229.69 288.88 230.938 290.16 231.802 291.792C232.698 293.424 233.194 295.312 233.29 297.456C233.322 297.968 233.338 298.656 233.338 299.52C233.338 300.352 233.322 301.04 233.29 301.584C233.194 303.696 232.714 305.584 231.85 307.248C230.986 308.88 229.738 310.16 228.106 311.088C226.474 312.016 224.442 312.48 222.01 312.48ZM222.01 308.784C223.994 308.784 225.578 308.16 226.762 306.912C227.946 305.632 228.586 303.776 228.682 301.344C228.714 300.864 228.73 300.256 228.73 299.52C228.73 298.784 228.714 298.176 228.682 297.696C228.586 295.264 227.946 293.424 226.762 292.176C225.578 290.896 223.994 290.256 222.01 290.256C220.026 290.256 218.426 290.896 217.21 292.176C216.026 293.424 215.402 295.264 215.338 297.696C215.306 298.176 215.29 298.784 215.29 299.52C215.29 300.256 215.306 300.864 215.338 301.344C215.402 303.776 216.026 305.632 217.21 306.912C218.426 308.16 220.026 308.784 222.01 308.784ZM249.573 322.56C247.397 322.56 245.605 322.272 244.197 321.696C242.821 321.12 241.733 320.416 240.933 319.584C240.165 318.784 239.605 317.968 239.253 317.136C238.933 316.336 238.757 315.696 238.725 315.216C238.693 314.896 238.789 314.624 239.013 314.4C239.269 314.176 239.541 314.064 239.829 314.064H242.133C242.421 314.064 242.661 314.128 242.853 314.256C243.045 314.384 243.205 314.656 243.333 315.072C243.525 315.552 243.813 316.08 244.197 316.656C244.581 317.264 245.173 317.776 245.973 318.192C246.773 318.64 247.893 318.864 249.333 318.864C250.837 318.864 252.101 318.656 253.125 318.24C254.149 317.824 254.917 317.12 255.429 316.128C255.973 315.136 256.245 313.76 256.245 312V308.736C255.477 309.728 254.469 310.56 253.221 311.232C251.973 311.872 250.405 312.192 248.517 312.192C246.725 312.192 245.189 311.888 243.909 311.28C242.629 310.64 241.573 309.792 240.741 308.736C239.941 307.648 239.333 306.416 238.917 305.04C238.533 303.664 238.309 302.224 238.245 300.72C238.213 299.824 238.213 298.944 238.245 298.08C238.309 296.576 238.533 295.136 238.917 293.76C239.333 292.384 239.941 291.152 240.741 290.064C241.573 288.976 242.629 288.128 243.909 287.52C245.189 286.88 246.725 286.56 248.517 286.56C250.437 286.56 252.021 286.912 253.269 287.616C254.549 288.32 255.589 289.2 256.389 290.256V288.192C256.389 287.872 256.485 287.6 256.677 287.376C256.901 287.152 257.173 287.04 257.493 287.04H259.701C260.021 287.04 260.293 287.152 260.517 287.376C260.741 287.6 260.853 287.872 260.853 288.192V311.472C260.853 313.616 260.485 315.52 259.749 317.184C259.045 318.848 257.861 320.16 256.197 321.12C254.565 322.08 252.357 322.56 249.573 322.56ZM249.477 308.352C251.077 308.352 252.357 307.984 253.317 307.248C254.309 306.512 255.029 305.584 255.477 304.464C255.957 303.344 256.213 302.208 256.245 301.056C256.277 300.608 256.293 300.064 256.293 299.424C256.293 298.752 256.277 298.192 256.245 297.744C256.213 296.592 255.957 295.456 255.477 294.336C255.029 293.216 254.309 292.288 253.317 291.552C252.357 290.816 251.077 290.448 249.477 290.448C247.877 290.448 246.597 290.816 245.637 291.552C244.677 292.256 243.989 293.2 243.573 294.384C243.157 295.536 242.917 296.784 242.853 298.128C242.821 298.96 242.821 299.808 242.853 300.672C242.917 302.016 243.157 303.28 243.573 304.464C243.989 305.616 244.677 306.56 245.637 307.296C246.597 308 247.877 308.352 249.477 308.352ZM269.094 312C268.774 312 268.502 311.904 268.278 311.712C268.086 311.488 267.99 311.216 267.99 310.896V288.192C267.99 287.872 268.086 287.6 268.278 287.376C268.502 287.152 268.774 287.04 269.094 287.04H271.302C271.622 287.04 271.894 287.152 272.118 287.376C272.342 287.6 272.454 287.872 272.454 288.192V290.304C273.094 289.216 273.974 288.4 275.094 287.856C276.214 287.312 277.574 287.04 279.174 287.04H281.046C281.366 287.04 281.622 287.152 281.814 287.376C282.038 287.568 282.15 287.824 282.15 288.144V290.112C282.15 290.432 282.038 290.688 281.814 290.88C281.622 291.072 281.366 291.168 281.046 291.168H278.166C276.438 291.168 275.078 291.68 274.086 292.704C273.094 293.696 272.598 295.056 272.598 296.784V310.896C272.598 311.216 272.486 311.488 272.262 311.712C272.038 311.904 271.766 312 271.446 312H269.094ZM295.739 312.48C292.411 312.48 289.771 311.472 287.819 309.456C285.867 307.408 284.795 304.624 284.603 301.104C284.571 300.688 284.555 300.16 284.555 299.52C284.555 298.848 284.571 298.304 284.603 297.888C284.731 295.616 285.259 293.632 286.187 291.936C287.115 290.208 288.379 288.88 289.979 287.952C291.611 287.024 293.515 286.56 295.691 286.56C298.123 286.56 300.155 287.072 301.787 288.096C303.451 289.12 304.715 290.576 305.579 292.464C306.443 294.352 306.875 296.56 306.875 299.088V299.904C306.875 300.256 306.763 300.528 306.539 300.72C306.347 300.912 306.091 301.008 305.771 301.008H289.163C289.163 301.04 289.163 301.104 289.163 301.2C289.163 301.296 289.163 301.376 289.163 301.44C289.227 302.752 289.515 303.984 290.027 305.136C290.539 306.256 291.275 307.168 292.235 307.872C293.227 308.576 294.379 308.928 295.691 308.928C296.843 308.928 297.803 308.752 298.571 308.4C299.339 308.048 299.963 307.664 300.443 307.248C300.923 306.8 301.243 306.448 301.403 306.192C301.691 305.808 301.915 305.584 302.075 305.52C302.235 305.424 302.491 305.376 302.843 305.376H305.195C305.483 305.376 305.723 305.472 305.915 305.664C306.139 305.824 306.235 306.064 306.203 306.384C306.171 306.864 305.915 307.456 305.435 308.16C304.955 308.832 304.267 309.504 303.371 310.176C302.507 310.848 301.419 311.408 300.107 311.856C298.827 312.272 297.371 312.48 295.739 312.48ZM289.163 297.696H302.315V297.552C302.315 296.112 302.043 294.832 301.499 293.712C300.987 292.592 300.235 291.712 299.243 291.072C298.251 290.4 297.067 290.064 295.691 290.064C294.315 290.064 293.131 290.4 292.139 291.072C291.179 291.712 290.443 292.592 289.931 293.712C289.419 294.832 289.163 296.112 289.163 297.552V297.696ZM321.255 312.48C319.463 312.48 317.927 312.256 316.647 311.808C315.367 311.36 314.327 310.816 313.527 310.176C312.727 309.536 312.119 308.896 311.703 308.256C311.319 307.616 311.111 307.104 311.079 306.72C311.047 306.368 311.159 306.096 311.415 305.904C311.671 305.712 311.927 305.616 312.183 305.616H314.343C314.503 305.616 314.631 305.648 314.727 305.712C314.855 305.744 315.015 305.872 315.207 306.096C315.623 306.544 316.087 306.992 316.599 307.44C317.111 307.888 317.735 308.256 318.471 308.544C319.239 308.832 320.183 308.976 321.303 308.976C322.935 308.976 324.279 308.672 325.335 308.064C326.391 307.424 326.919 306.496 326.919 305.28C326.919 304.48 326.695 303.84 326.247 303.36C325.831 302.88 325.063 302.448 323.943 302.064C322.855 301.68 321.351 301.28 319.431 300.864C317.511 300.416 315.991 299.872 314.871 299.232C313.751 298.56 312.951 297.776 312.471 296.88C311.991 295.952 311.751 294.912 311.751 293.76C311.751 292.576 312.103 291.44 312.807 290.352C313.511 289.232 314.535 288.32 315.879 287.616C317.255 286.912 318.967 286.56 321.015 286.56C322.679 286.56 324.103 286.768 325.287 287.184C326.471 287.6 327.447 288.128 328.215 288.768C328.983 289.376 329.559 289.984 329.943 290.592C330.327 291.2 330.535 291.712 330.567 292.128C330.599 292.448 330.503 292.72 330.279 292.944C330.055 293.136 329.799 293.232 329.511 293.232H327.495C327.271 293.232 327.079 293.184 326.919 293.088C326.791 292.992 326.663 292.88 326.535 292.752C326.215 292.336 325.831 291.92 325.383 291.504C324.967 291.088 324.407 290.752 323.703 290.496C323.031 290.208 322.135 290.064 321.015 290.064C319.415 290.064 318.215 290.4 317.415 291.072C316.615 291.744 316.215 292.592 316.215 293.616C316.215 294.224 316.391 294.768 316.743 295.248C317.095 295.728 317.767 296.16 318.759 296.544C319.751 296.928 321.223 297.344 323.174 297.792C325.287 298.208 326.951 298.768 328.167 299.472C329.383 300.176 330.247 300.992 330.759 301.92C331.271 302.848 331.527 303.92 331.527 305.136C331.527 306.48 331.143 307.712 330.375 308.832C329.607 309.952 328.455 310.848 326.919 311.52C325.383 312.16 323.495 312.48 321.255 312.48ZM345.723 312.48C343.931 312.48 342.395 312.256 341.115 311.808C339.835 311.36 338.795 310.816 337.995 310.176C337.195 309.536 336.587 308.896 336.171 308.256C335.787 307.616 335.579 307.104 335.547 306.72C335.515 306.368 335.627 306.096 335.883 305.904C336.139 305.712 336.395 305.616 336.651 305.616H338.811C338.971 305.616 339.099 305.648 339.195 305.712C339.323 305.744 339.483 305.872 339.675 306.096C340.091 306.544 340.555 306.992 341.067 307.44C341.579 307.888 342.203 308.256 342.939 308.544C343.707 308.832 344.651 308.976 345.771 308.976C347.403 308.976 348.747 308.672 349.803 308.064C350.859 307.424 351.387 306.496 351.387 305.28C351.387 304.48 351.163 303.84 350.715 303.36C350.299 302.88 349.531 302.448 348.411 302.064C347.323 301.68 345.819 301.28 343.899 300.864C341.979 300.416 340.459 299.872 339.339 299.232C338.219 298.56 337.419 297.776 336.939 296.88C336.459 295.952 336.219 294.912 336.219 293.76C336.219 292.576 336.571 291.44 337.275 290.352C337.979 289.232 339.003 288.32 340.347 287.616C341.723 286.912 343.435 286.56 345.483 286.56C347.147 286.56 348.571 286.768 349.755 287.184C350.939 287.6 351.915 288.128 352.683 288.768C353.451 289.376 354.027 289.984 354.411 290.592C354.795 291.2 355.003 291.712 355.035 292.128C355.067 292.448 354.971 292.72 354.747 292.944C354.523 293.136 354.267 293.232 353.979 293.232H351.963C351.739 293.232 351.547 293.184 351.387 293.088C351.259 292.992 351.131 292.88 351.003 292.752C350.683 292.336 350.299 291.92 349.851 291.504C349.435 291.088 348.875 290.752 348.171 290.496C347.499 290.208 346.603 290.064 345.483 290.064C343.883 290.064 342.683 290.4 341.883 291.072C341.083 291.744 340.683 292.592 340.683 293.616C340.683 294.224 340.859 294.768 341.211 295.248C341.563 295.728 342.235 296.16 343.227 296.544C344.219 296.928 345.691 297.344 347.643 297.792C349.755 298.208 351.419 298.768 352.635 299.472C353.851 300.176 354.715 300.992 355.227 301.92C355.739 302.848 355.995 303.92 355.995 305.136C355.995 306.48 355.611 307.712 354.843 308.832C354.075 309.952 352.923 310.848 351.387 311.52C349.851 312.16 347.963 312.48 345.723 312.48Z" fill="white"/>
<path d="M318.023 326C317.575 326 317.211 325.916 316.931 325.748C316.651 325.572 316.447 325.328 316.319 325.016C316.191 324.696 316.127 324.32 316.127 323.888V320.72H315.191C315.111 320.72 315.043 320.696 314.987 320.648C314.939 320.592 314.915 320.524 314.915 320.444V320.036C314.915 319.956 314.939 319.892 314.987 319.844C315.043 319.788 315.111 319.76 315.191 319.76H316.127V317.756C316.127 317.676 316.151 317.612 316.199 317.564C316.255 317.508 316.323 317.48 316.403 317.48H316.967C317.047 317.48 317.111 317.508 317.159 317.564C317.215 317.612 317.243 317.676 317.243 317.756V319.76H318.731C318.819 319.76 318.887 319.788 318.935 319.844C318.983 319.892 319.007 319.956 319.007 320.036V320.444C319.007 320.524 318.983 320.592 318.935 320.648C318.887 320.696 318.819 320.72 318.731 320.72H317.243V323.804C317.243 324.18 317.307 324.476 317.435 324.692C317.563 324.908 317.791 325.016 318.119 325.016H318.851C318.931 325.016 318.995 325.044 319.043 325.1C319.099 325.148 319.127 325.212 319.127 325.292V325.724C319.127 325.804 319.099 325.872 319.043 325.928C318.995 325.976 318.931 326 318.851 326H318.023ZM320.551 326C320.471 326 320.403 325.976 320.347 325.928C320.299 325.872 320.275 325.804 320.275 325.724V320.048C320.275 319.968 320.299 319.9 320.347 319.844C320.403 319.788 320.471 319.76 320.551 319.76H321.103C321.183 319.76 321.251 319.788 321.307 319.844C321.363 319.9 321.391 319.968 321.391 320.048V320.576C321.551 320.304 321.771 320.1 322.051 319.964C322.331 319.828 322.671 319.76 323.071 319.76H323.539C323.619 319.76 323.683 319.788 323.731 319.844C323.787 319.892 323.815 319.956 323.815 320.036V320.528C323.815 320.608 323.787 320.672 323.731 320.72C323.683 320.768 323.619 320.792 323.539 320.792H322.819C322.387 320.792 322.047 320.92 321.799 321.176C321.551 321.424 321.427 321.764 321.427 322.196V325.724C321.427 325.804 321.399 325.872 321.343 325.928C321.287 325.976 321.219 326 321.139 326H320.551ZM326.48 326.12C326.08 326.12 325.716 326.04 325.388 325.88C325.06 325.72 324.796 325.504 324.596 325.232C324.396 324.96 324.296 324.652 324.296 324.308C324.296 323.756 324.52 323.316 324.968 322.988C325.416 322.66 326 322.444 326.72 322.34L328.508 322.088V321.74C328.508 321.356 328.396 321.056 328.172 320.84C327.956 320.624 327.6 320.516 327.104 320.516C326.752 320.516 326.464 320.588 326.24 320.732C326.016 320.876 325.86 321.06 325.772 321.284C325.724 321.404 325.64 321.464 325.52 321.464H324.98C324.892 321.464 324.824 321.44 324.776 321.392C324.736 321.336 324.716 321.272 324.716 321.2C324.716 321.08 324.76 320.932 324.848 320.756C324.944 320.58 325.088 320.408 325.28 320.24C325.472 320.072 325.716 319.932 326.012 319.82C326.316 319.7 326.684 319.64 327.116 319.64C327.596 319.64 328 319.704 328.328 319.832C328.656 319.952 328.912 320.116 329.096 320.324C329.288 320.532 329.424 320.768 329.504 321.032C329.592 321.296 329.636 321.564 329.636 321.836V325.724C329.636 325.804 329.608 325.872 329.552 325.928C329.504 325.976 329.44 326 329.36 326H328.808C328.72 326 328.652 325.976 328.604 325.928C328.556 325.872 328.532 325.804 328.532 325.724V325.208C328.428 325.352 328.288 325.496 328.112 325.64C327.936 325.776 327.716 325.892 327.452 325.988C327.188 326.076 326.864 326.12 326.48 326.12ZM326.732 325.22C327.06 325.22 327.36 325.152 327.632 325.016C327.904 324.872 328.116 324.652 328.268 324.356C328.428 324.06 328.508 323.688 328.508 323.24V322.904L327.116 323.108C326.548 323.188 326.12 323.324 325.832 323.516C325.544 323.7 325.4 323.936 325.4 324.224C325.4 324.448 325.464 324.636 325.592 324.788C325.728 324.932 325.896 325.04 326.096 325.112C326.304 325.184 326.516 325.22 326.732 325.22ZM331.637 326C331.557 326 331.489 325.976 331.433 325.928C331.385 325.872 331.361 325.804 331.361 325.724V320.036C331.361 319.956 331.385 319.892 331.433 319.844C331.489 319.788 331.557 319.76 331.637 319.76H332.213C332.293 319.76 332.357 319.788 332.405 319.844C332.461 319.892 332.489 319.956 332.489 320.036V325.724C332.489 325.804 332.461 325.872 332.405 325.928C332.357 325.976 332.293 326 332.213 326H331.637ZM331.541 318.596C331.461 318.596 331.393 318.572 331.337 318.524C331.289 318.468 331.265 318.4 331.265 318.32V317.672C331.265 317.592 331.289 317.524 331.337 317.468C331.393 317.412 331.461 317.384 331.541 317.384H332.297C332.377 317.384 332.445 317.412 332.501 317.468C332.557 317.524 332.585 317.592 332.585 317.672V318.32C332.585 318.4 332.557 318.468 332.501 318.524C332.445 318.572 332.377 318.596 332.297 318.596H331.541ZM334.543 326C334.463 326 334.395 325.976 334.339 325.928C334.291 325.872 334.267 325.804 334.267 325.724V320.036C334.267 319.956 334.291 319.892 334.339 319.844C334.395 319.788 334.463 319.76 334.543 319.76H335.107C335.187 319.76 335.251 319.788 335.299 319.844C335.355 319.892 335.383 319.956 335.383 320.036V320.564C335.591 320.292 335.851 320.072 336.163 319.904C336.483 319.728 336.891 319.64 337.387 319.64C337.907 319.64 338.347 319.756 338.707 319.988C339.075 320.212 339.351 320.528 339.535 320.936C339.727 321.336 339.823 321.804 339.823 322.34V325.724C339.823 325.804 339.795 325.872 339.739 325.928C339.691 325.976 339.627 326 339.547 326H338.947C338.867 326 338.799 325.976 338.743 325.928C338.695 325.872 338.671 325.804 338.671 325.724V322.4C338.671 321.84 338.535 321.404 338.263 321.092C337.991 320.772 337.591 320.612 337.063 320.612C336.567 320.612 336.167 320.772 335.863 321.092C335.567 321.404 335.419 321.84 335.419 322.4V325.724C335.419 325.804 335.391 325.872 335.335 325.928C335.287 325.976 335.223 326 335.143 326H334.543ZM341.82 326C341.74 326 341.672 325.976 341.616 325.928C341.568 325.872 341.544 325.804 341.544 325.724V320.036C341.544 319.956 341.568 319.892 341.616 319.844C341.672 319.788 341.74 319.76 341.82 319.76H342.396C342.476 319.76 342.54 319.788 342.588 319.844C342.644 319.892 342.672 319.956 342.672 320.036V325.724C342.672 325.804 342.644 325.872 342.588 325.928C342.54 325.976 342.476 326 342.396 326H341.82ZM341.724 318.596C341.644 318.596 341.576 318.572 341.52 318.524C341.472 318.468 341.448 318.4 341.448 318.32V317.672C341.448 317.592 341.472 317.524 341.52 317.468C341.576 317.412 341.644 317.384 341.724 317.384H342.48C342.56 317.384 342.628 317.412 342.684 317.468C342.74 317.524 342.768 317.592 342.768 317.672V318.32C342.768 318.4 342.74 318.468 342.684 318.524C342.628 318.572 342.56 318.596 342.48 318.596H341.724ZM344.727 326C344.647 326 344.579 325.976 344.523 325.928C344.475 325.872 344.451 325.804 344.451 325.724V320.036C344.451 319.956 344.475 319.892 344.523 319.844C344.579 319.788 344.647 319.76 344.727 319.76H345.291C345.371 319.76 345.435 319.788 345.483 319.844C345.539 319.892 345.567 319.956 345.567 320.036V320.564C345.775 320.292 346.035 320.072 346.347 319.904C346.667 319.728 347.075 319.64 347.571 319.64C348.091 319.64 348.531 319.756 348.891 319.988C349.259 320.212 349.535 320.528 349.719 320.936C349.911 321.336 350.007 321.804 350.007 322.34V325.724C350.007 325.804 349.979 325.872 349.923 325.928C349.875 325.976 349.811 326 349.73 326H349.131C349.051 326 348.983 325.976 348.927 325.928C348.879 325.872 348.855 325.804 348.855 325.724V322.4C348.855 321.84 348.719 321.404 348.447 321.092C348.175 320.772 347.775 320.612 347.247 320.612C346.751 320.612 346.351 320.772 346.047 321.092C345.751 321.404 345.603 321.84 345.603 322.4V325.724C345.603 325.804 345.575 325.872 345.519 325.928C345.471 325.976 345.407 326 345.326 326H344.727ZM354.284 328.64C353.74 328.64 353.292 328.568 352.94 328.424C352.596 328.28 352.324 328.104 352.124 327.896C351.932 327.696 351.792 327.492 351.704 327.284C351.624 327.084 351.58 326.924 351.572 326.804C351.564 326.724 351.588 326.656 351.644 326.6C351.708 326.544 351.776 326.516 351.848 326.516H352.424C352.496 326.516 352.556 326.532 352.604 326.564C352.652 326.596 352.692 326.664 352.724 326.768C352.772 326.888 352.844 327.02 352.94 327.164C353.036 327.316 353.184 327.444 353.384 327.548C353.584 327.66 353.864 327.716 354.224 327.716C354.6 327.716 354.916 327.664 355.172 327.56C355.428 327.456 355.62 327.28 355.748 327.032C355.884 326.784 355.952 326.44 355.952 326V325.184C355.76 325.432 355.508 325.64 355.196 325.808C354.884 325.968 354.492 326.048 354.02 326.048C353.572 326.048 353.188 325.972 352.868 325.82C352.548 325.66 352.284 325.448 352.076 325.184C351.876 324.912 351.724 324.604 351.62 324.26C351.524 323.916 351.468 323.556 351.452 323.18C351.444 322.956 351.444 322.736 351.452 322.52C351.468 322.144 351.524 321.784 351.62 321.44C351.724 321.096 351.876 320.788 352.076 320.516C352.284 320.244 352.548 320.032 352.868 319.88C353.188 319.72 353.572 319.64 354.02 319.64C354.5 319.64 354.896 319.728 355.208 319.904C355.528 320.08 355.788 320.3 355.988 320.564V320.048C355.988 319.968 356.012 319.9 356.06 319.844C356.116 319.788 356.184 319.76 356.264 319.76H356.816C356.896 319.76 356.964 319.788 357.02 319.844C357.076 319.9 357.104 319.968 357.104 320.048V325.868C357.104 326.404 357.012 326.88 356.828 327.296C356.652 327.712 356.356 328.04 355.94 328.28C355.532 328.52 354.98 328.64 354.284 328.64ZM354.26 325.088C354.66 325.088 354.98 324.996 355.22 324.812C355.468 324.628 355.648 324.396 355.76 324.116C355.88 323.836 355.944 323.552 355.952 323.264C355.96 323.152 355.964 323.016 355.964 322.856C355.964 322.688 355.96 322.548 355.952 322.436C355.944 322.148 355.88 321.864 355.76 321.584C355.648 321.304 355.468 321.072 355.22 320.888C354.98 320.704 354.66 320.612 354.26 320.612C353.86 320.612 353.54 320.704 353.3 320.888C353.06 321.064 352.888 321.3 352.784 321.596C352.68 321.884 352.62 322.196 352.604 322.532C352.596 322.74 352.596 322.952 352.604 323.168C352.62 323.504 352.68 323.82 352.784 324.116C352.888 324.404 353.06 324.64 353.3 324.824C353.54 325 353.86 325.088 354.26 325.088Z" fill="#FFA500"/>
</svg>
