<svg width="512" height="512" viewBox="0 0 512 512" fill="none" xmlns="http://www.w3.org/2000/svg">
<circle cx="256" cy="256" r="256" fill="#34495E"/>
<path d="M173.242 315C171.981 315 171.006 314.656 170.318 313.968C169.63 313.165 169.286 312.191 169.286 311.044V198.728C169.286 197.467 169.63 196.492 170.318 195.804C171.006 195.001 171.981 194.6 173.242 194.6H216.93C225.416 194.6 232.754 195.976 238.946 198.728C245.253 201.48 250.126 205.608 253.566 211.112C257.006 216.501 258.726 223.267 258.726 231.408C258.726 239.549 257.006 246.315 253.566 251.704C250.126 257.093 245.253 261.164 238.946 263.916C232.754 266.668 225.416 268.044 216.93 268.044H186.486V311.044C186.486 312.191 186.085 313.165 185.282 313.968C184.594 314.656 183.62 315 182.358 315H173.242ZM186.314 253.596H216.07C224.556 253.596 230.92 251.704 235.162 247.92C239.405 244.136 241.526 238.632 241.526 231.408C241.526 224.299 239.462 218.795 235.334 214.896C231.206 210.997 224.785 209.048 216.07 209.048H186.314V253.596Z" fill="#FFA500"/>
<path d="M194.89 315C194.57 315 194.298 314.904 194.074 314.712C193.882 314.488 193.786 314.216 193.786 313.896V291.192C193.786 290.872 193.882 290.6 194.074 290.376C194.298 290.152 194.57 290.04 194.89 290.04H197.098C197.418 290.04 197.69 290.152 197.914 290.376C198.138 290.6 198.25 290.872 198.25 291.192V293.304C198.89 292.216 199.77 291.4 200.89 290.856C202.01 290.312 203.37 290.04 204.97 290.04H206.842C207.162 290.04 207.418 290.152 207.61 290.376C207.834 290.568 207.946 290.824 207.946 291.144V293.112C207.946 293.432 207.834 293.688 207.61 293.88C207.418 294.072 207.162 294.168 206.842 294.168H203.962C202.234 294.168 200.874 294.68 199.882 295.704C198.89 296.696 198.394 298.056 198.394 299.784V313.896C198.394 314.216 198.282 314.488 198.058 314.712C197.834 314.904 197.562 315 197.242 315H194.89ZM221.776 315.48C219.344 315.48 217.312 315.016 215.68 314.088C214.048 313.16 212.8 311.88 211.936 310.248C211.072 308.584 210.592 306.696 210.496 304.584C210.464 304.04 210.448 303.352 210.448 302.52C210.448 301.656 210.464 300.968 210.496 300.456C210.592 298.312 211.072 296.424 211.936 294.792C212.832 293.16 214.096 291.88 215.728 290.952C217.36 290.024 219.376 289.56 221.776 289.56C224.176 289.56 226.192 290.024 227.824 290.952C229.456 291.88 230.704 293.16 231.568 294.792C232.464 296.424 232.96 298.312 233.056 300.456C233.088 300.968 233.104 301.656 233.104 302.52C233.104 303.352 233.088 304.04 233.056 304.584C232.96 306.696 232.48 308.584 231.616 310.248C230.752 311.88 229.504 313.16 227.872 314.088C226.24 315.016 224.208 315.48 221.776 315.48ZM221.776 311.784C223.76 311.784 225.344 311.16 226.528 309.912C227.712 308.632 228.352 306.776 228.448 304.344C228.48 303.864 228.496 303.256 228.496 302.52C228.496 301.784 228.48 301.176 228.448 300.696C228.352 298.264 227.712 296.424 226.528 295.176C225.344 293.896 223.76 293.256 221.776 293.256C219.792 293.256 218.192 293.896 216.976 295.176C215.792 296.424 215.168 298.264 215.104 300.696C215.072 301.176 215.056 301.784 215.056 302.52C215.056 303.256 215.072 303.864 215.104 304.344C215.168 306.776 215.792 308.632 216.976 309.912C218.192 311.16 219.792 311.784 221.776 311.784ZM249.339 325.56C247.163 325.56 245.371 325.272 243.963 324.696C242.587 324.12 241.499 323.416 240.699 322.584C239.931 321.784 239.371 320.968 239.019 320.136C238.699 319.336 238.523 318.696 238.491 318.216C238.459 317.896 238.555 317.624 238.779 317.4C239.035 317.176 239.307 317.064 239.595 317.064H241.898C242.187 317.064 242.427 317.128 242.618 317.256C242.811 317.384 242.971 317.656 243.099 318.072C243.291 318.552 243.579 319.08 243.963 319.656C244.347 320.264 244.939 320.776 245.739 321.192C246.539 321.64 247.659 321.864 249.099 321.864C250.603 321.864 251.867 321.656 252.891 321.24C253.915 320.824 254.683 320.12 255.195 319.128C255.739 318.136 256.011 316.76 256.011 315V311.736C255.243 312.728 254.235 313.56 252.987 314.232C251.739 314.872 250.171 315.192 248.283 315.192C246.491 315.192 244.955 314.888 243.675 314.28C242.395 313.64 241.339 312.792 240.507 311.736C239.707 310.648 239.099 309.416 238.683 308.04C238.299 306.664 238.075 305.224 238.011 303.72C237.979 302.824 237.979 301.944 238.011 301.08C238.075 299.576 238.299 298.136 238.683 296.76C239.099 295.384 239.707 294.152 240.507 293.064C241.339 291.976 242.395 291.128 243.675 290.52C244.955 289.88 246.491 289.56 248.283 289.56C250.203 289.56 251.787 289.912 253.035 290.616C254.315 291.32 255.355 292.2 256.155 293.256V291.192C256.155 290.872 256.251 290.6 256.443 290.376C256.667 290.152 256.939 290.04 257.259 290.04H259.467C259.787 290.04 260.059 290.152 260.283 290.376C260.507 290.6 260.619 290.872 260.619 291.192V314.472C260.619 316.616 260.251 318.52 259.515 320.184C258.811 321.848 257.627 323.16 255.963 324.12C254.331 325.08 252.123 325.56 249.339 325.56ZM249.243 311.352C250.843 311.352 252.123 310.984 253.083 310.248C254.075 309.512 254.795 308.584 255.243 307.464C255.723 306.344 255.979 305.208 256.011 304.056C256.043 303.608 256.059 303.064 256.059 302.424C256.059 301.752 256.043 301.192 256.011 300.744C255.979 299.592 255.723 298.456 255.243 297.336C254.795 296.216 254.075 295.288 253.083 294.552C252.123 293.816 250.843 293.448 249.243 293.448C247.643 293.448 246.363 293.816 245.403 294.552C244.443 295.256 243.755 296.2 243.339 297.384C242.923 298.536 242.683 299.784 242.618 301.128C242.587 301.96 242.587 302.808 242.618 303.672C242.683 305.016 242.923 306.28 243.339 307.464C243.755 308.616 244.443 309.56 245.403 310.296C246.363 311 247.643 311.352 249.243 311.352ZM268.859 315C268.539 315 268.267 314.904 268.043 314.712C267.851 314.488 267.755 314.216 267.755 313.896V291.192C267.755 290.872 267.851 290.6 268.043 290.376C268.267 290.152 268.539 290.04 268.859 290.04H271.067C271.387 290.04 271.659 290.152 271.883 290.376C272.107 290.6 272.219 290.872 272.219 291.192V293.304C272.859 292.216 273.739 291.4 274.859 290.856C275.979 290.312 277.339 290.04 278.939 290.04H280.811C281.131 290.04 281.387 290.152 281.579 290.376C281.803 290.568 281.915 290.824 281.915 291.144V293.112C281.915 293.432 281.803 293.688 281.579 293.88C281.387 294.072 281.131 294.168 280.811 294.168H277.931C276.203 294.168 274.843 294.68 273.851 295.704C272.859 296.696 272.363 298.056 272.363 299.784V313.896C272.363 314.216 272.251 314.488 272.027 314.712C271.803 314.904 271.531 315 271.211 315H268.859ZM295.505 315.48C292.177 315.48 289.537 314.472 287.585 312.456C285.633 310.408 284.561 307.624 284.369 304.104C284.337 303.688 284.321 303.16 284.321 302.52C284.321 301.848 284.337 301.304 284.369 300.888C284.497 298.616 285.025 296.632 285.953 294.936C286.881 293.208 288.145 291.88 289.745 290.952C291.377 290.024 293.281 289.56 295.457 289.56C297.889 289.56 299.921 290.072 301.553 291.096C303.217 292.12 304.481 293.576 305.345 295.464C306.209 297.352 306.641 299.56 306.641 302.088V302.904C306.641 303.256 306.529 303.528 306.305 303.72C306.113 303.912 305.857 304.008 305.537 304.008H288.929C288.929 304.04 288.929 304.104 288.929 304.2C288.929 304.296 288.929 304.376 288.929 304.44C288.993 305.752 289.281 306.984 289.793 308.136C290.305 309.256 291.041 310.168 292.001 310.872C292.993 311.576 294.145 311.928 295.457 311.928C296.609 311.928 297.569 311.752 298.337 311.4C299.105 311.048 299.729 310.664 300.209 310.248C300.689 309.8 301.009 309.448 301.169 309.192C301.457 308.808 301.681 308.584 301.841 308.52C302.001 308.424 302.257 308.376 302.609 308.376H304.961C305.249 308.376 305.489 308.472 305.681 308.664C305.905 308.824 306.001 309.064 305.969 309.384C305.937 309.864 305.681 310.456 305.201 311.16C304.721 311.832 304.033 312.504 303.137 313.176C302.273 313.848 301.185 314.408 299.873 314.856C298.593 315.272 297.137 315.48 295.505 315.48ZM288.929 300.696H302.081V300.552C302.081 299.112 301.809 297.832 301.265 296.712C300.753 295.592 300.001 294.712 299.009 294.072C298.017 293.4 296.833 293.064 295.457 293.064C294.081 293.064 292.897 293.4 291.905 294.072C290.945 294.712 290.209 295.592 289.697 296.712C289.185 297.832 288.929 299.112 288.929 300.552V300.696ZM321.02 315.48C319.228 315.48 317.692 315.256 316.412 314.808C315.132 314.36 314.092 313.816 313.292 313.176C312.492 312.536 311.884 311.896 311.468 311.256C311.084 310.616 310.876 310.104 310.844 309.72C310.812 309.368 310.924 309.096 311.18 308.904C311.436 308.712 311.692 308.616 311.948 308.616H314.108C314.268 308.616 314.396 308.648 314.492 308.712C314.62 308.744 314.78 308.872 314.972 309.096C315.388 309.544 315.852 309.992 316.364 310.44C316.876 310.888 317.5 311.256 318.236 311.544C319.004 311.832 319.948 311.976 321.068 311.976C322.7 311.976 324.044 311.672 325.1 311.064C326.156 310.424 326.684 309.496 326.684 308.28C326.684 307.48 326.46 306.84 326.012 306.36C325.596 305.88 324.828 305.448 323.708 305.064C322.62 304.68 321.116 304.28 319.196 303.864C317.276 303.416 315.756 302.872 314.636 302.232C313.516 301.56 312.716 300.776 312.236 299.88C311.756 298.952 311.516 297.912 311.516 296.76C311.516 295.576 311.868 294.44 312.572 293.352C313.276 292.232 314.3 291.32 315.644 290.616C317.02 289.912 318.732 289.56 320.78 289.56C322.444 289.56 323.868 289.768 325.052 290.184C326.236 290.6 327.212 291.128 327.98 291.768C328.748 292.376 329.324 292.984 329.708 293.592C330.092 294.2 330.3 294.712 330.332 295.128C330.364 295.448 330.268 295.72 330.044 295.944C329.82 296.136 329.564 296.232 329.276 296.232H327.26C327.036 296.232 326.844 296.184 326.684 296.088C326.556 295.992 326.428 295.88 326.3 295.752C325.98 295.336 325.596 294.92 325.148 294.504C324.732 294.088 324.172 293.752 323.468 293.496C322.796 293.208 321.9 293.064 320.78 293.064C319.18 293.064 317.98 293.4 317.18 294.072C316.38 294.744 315.98 295.592 315.98 296.616C315.98 297.224 316.156 297.768 316.508 298.248C316.86 298.728 317.532 299.16 318.524 299.544C319.516 299.928 320.988 300.344 322.94 300.792C325.052 301.208 326.716 301.768 327.932 302.472C329.148 303.176 330.012 303.992 330.524 304.92C331.036 305.848 331.292 306.92 331.292 308.136C331.292 309.48 330.908 310.712 330.14 311.832C329.372 312.952 328.22 313.848 326.684 314.52C325.148 315.16 323.26 315.48 321.02 315.48ZM345.489 315.48C343.697 315.48 342.161 315.256 340.881 314.808C339.601 314.36 338.561 313.816 337.761 313.176C336.961 312.536 336.353 311.896 335.937 311.256C335.553 310.616 335.345 310.104 335.313 309.72C335.281 309.368 335.393 309.096 335.649 308.904C335.905 308.712 336.161 308.616 336.417 308.616H338.577C338.737 308.616 338.865 308.648 338.961 308.712C339.089 308.744 339.249 308.872 339.441 309.096C339.857 309.544 340.321 309.992 340.833 310.44C341.345 310.888 341.969 311.256 342.705 311.544C343.473 311.832 344.417 311.976 345.537 311.976C347.169 311.976 348.513 311.672 349.569 311.064C350.625 310.424 351.153 309.496 351.153 308.28C351.153 307.48 350.929 306.84 350.481 306.36C350.065 305.88 349.297 305.448 348.177 305.064C347.089 304.68 345.585 304.28 343.665 303.864C341.745 303.416 340.225 302.872 339.105 302.232C337.985 301.56 337.185 300.776 336.705 299.88C336.225 298.952 335.985 297.912 335.985 296.76C335.985 295.576 336.337 294.44 337.041 293.352C337.745 292.232 338.769 291.32 340.113 290.616C341.489 289.912 343.201 289.56 345.249 289.56C346.913 289.56 348.337 289.768 349.521 290.184C350.705 290.6 351.681 291.128 352.449 291.768C353.217 292.376 353.793 292.984 354.177 293.592C354.561 294.2 354.769 294.712 354.801 295.128C354.833 295.448 354.737 295.72 354.513 295.944C354.289 296.136 354.033 296.232 353.745 296.232H351.729C351.505 296.232 351.313 296.184 351.153 296.088C351.025 295.992 350.897 295.88 350.769 295.752C350.449 295.336 350.065 294.92 349.617 294.504C349.201 294.088 348.641 293.752 347.937 293.496C347.265 293.208 346.369 293.064 345.249 293.064C343.649 293.064 342.449 293.4 341.649 294.072C340.849 294.744 340.449 295.592 340.449 296.616C340.449 297.224 340.625 297.768 340.977 298.248C341.329 298.728 342.001 299.16 342.993 299.544C343.985 299.928 345.457 300.344 347.409 300.792C349.521 301.208 351.185 301.768 352.401 302.472C353.617 303.176 354.481 303.992 354.993 304.92C355.505 305.848 355.761 306.92 355.761 308.136C355.761 309.48 355.377 310.712 354.609 311.832C353.841 312.952 352.689 313.848 351.153 314.52C349.617 315.16 347.729 315.48 345.489 315.48Z" fill="white"/>
</svg>
